# xmcd CD database file
#
# Track frame offsets:
#	150
#	19422
#	29009
#	49447
#	60229
#	81477
#	95842
#	113567
#	121380
#	132394
#	140912
#	165930
#	177837
#
# Disc length: 2735 seconds
#
# Revision: 0
# Processed by: cddbd v1.5.2PL0 Copyright (c) Steve Scherf et al.
# Submitted via: CDex 1.70beta2
#
DISCID=bb0aad0d
DTITLE=Harald Köster - Sweet Stuff
DYEAR=2002
DGENRE=Jazz
TTITLE0=Sweet Stuff
TTITLE1=Just Another Mood
TTITLE2=Orinoco Bird
TTITLE3=Statement
TTITLE4=Princess' Song
TTITLE5=Green Water
TTITLE6=Hektos
TTITLE7=Attila Zoller's Word
TTITLE8=Lovesong
TTITLE9=Lacrimae
TTITLE10=Wake Up
TTITLE11=Echoes From Somewhere
TTITLE12=Princess' Song - Trio
EXTD=YEAR: 2002
EXTT0=
EXTT1=
EXTT2=
EXTT3=
EXTT4=
EXTT5=
EXTT6=
EXTT7=
EXTT8=
EXTT9=
EXTT10=
EXTT11=
EXTT12=
PLAYORDER=
